<?xml version="1.0" standalone="no"?>
<!DOCTYPE svg PUBLIC "-//W3C//DTD SVG 20010904//EN"
 "http://www.w3.org/TR/2001/REC-SVG-20010904/DTD/svg10.dtd">
<svg version="1.0" xmlns="http://www.w3.org/2000/svg"
 width="512.000000pt" height="512.000000pt" viewBox="0 0 512.000000 512.000000"
 preserveAspectRatio="xMidYMid meet">
<metadata>
Created by potrace 1.11, written by Peter Selinger 2001-2013
</metadata>
<g transform="translate(0.000000,512.000000) scale(0.100000,-0.100000)"
fill="#000000" stroke="none">
<path d="M2479 4871 c-17 -13 -68 -25 -169 -41 -318 -48 -426 -78 -535 -151
-243 -163 -415 -453 -490 -824 -28 -139 -45 -292 -45 -409 0 -44 -5 -101 -11
-125 -12 -54 9 -127 46 -159 21 -19 25 -31 25 -79 0 -32 3 -67 6 -79 5 -18 -1
-23 -38 -32 -88 -22 -158 -120 -166 -233 -14 -201 176 -480 360 -528 60 -16
61 -17 78 -66 25 -73 76 -171 125 -240 65 -91 149 -166 384 -340 l214 -159 -7
-78 c-4 -43 -10 -88 -15 -101 -12 -30 -67 -55 -84 -38 -17 17 -48 14 -92 -9
-37 -19 -298 -91 -455 -126 -73 -17 -184 -81 -242 -141 -70 -72 -101 -153
-199 -523 -29 -107 -60 -215 -71 -238 l-18 -44 30 -11 c29 -11 30 -14 24 -54
-6 -41 -5 -43 20 -43 22 0 26 4 26 29 0 17 5 33 10 36 6 4 41 2 78 -4 37 -6
138 -13 225 -17 144 -6 157 -9 157 -26 0 -11 7 -18 20 -18 19 0 20 6 19 118 0
64 -4 153 -9 197 -24 199 -24 259 -1 358 26 111 81 230 141 305 50 62 59 67
164 97 l82 22 57 -53 c108 -100 245 -145 447 -145 138 0 236 18 326 62 75 35
180 129 171 152 -8 20 34 9 50 -13 6 -9 38 -23 70 -30 47 -11 67 -22 103 -59
80 -82 145 -232 169 -392 10 -61 9 -92 -4 -169 -9 -52 -19 -175 -22 -272 -6
-177 -6 -178 15 -178 15 0 22 6 22 20 0 19 7 20 93 21 50 0 153 6 227 13 143
14 150 13 150 -31 0 -18 6 -23 26 -23 23 0 25 3 22 38 -3 32 0 37 20 40 12 2
22 6 22 9 0 3 -20 71 -45 152 -24 80 -60 210 -80 289 -59 237 -102 330 -189
410 -94 87 -115 95 -446 178 -80 20 -166 45 -192 56 -36 16 -58 19 -93 15 -50
-7 -98 10 -109 38 -3 9 -9 54 -12 99 l-7 82 229 171 c308 228 386 313 469 510
18 43 35 85 38 95 4 10 26 20 61 28 179 37 378 327 364 529 -8 111 -78 211
-163 232 l-41 10 4 87 c3 70 8 94 27 122 39 57 44 81 34 161 -4 41 -13 141
-19 224 -33 480 -206 863 -484 1071 -125 94 -210 123 -491 168 -88 14 -173 28
-188 31 -16 3 -40 14 -54 25 -35 27 -130 28 -164 1z m346 -71 c391 -63 460
-91 633 -263 182 -179 298 -431 356 -772 15 -88 49 -495 42 -503 -2 -2 -20 11
-39 28 -20 17 -68 42 -109 56 -98 33 -322 79 -488 99 -74 9 -145 18 -157 21
-22 4 -23 7 -23 138 0 284 -35 387 -150 446 -86 44 -187 63 -330 64 -74 0
-162 -6 -195 -13 -126 -27 -220 -83 -255 -151 -23 -45 -45 -273 -38 -387 3
-45 1 -79 -6 -87 -7 -10 -64 -22 -160 -36 -175 -25 -354 -60 -481 -94 -78 -22
-95 -30 -127 -66 -20 -22 -39 -37 -42 -32 -6 10 10 291 24 417 45 396 184 712
402 909 141 128 236 166 528 214 102 17 196 33 210 35 79 13 229 5 405 -23z
m-340 -1034 c75 -24 75 -24 124 -5 71 27 135 32 276 24 l125 -7 0 -42 0 -41
-77 6 c-43 4 -118 13 -168 19 -62 9 -178 11 -377 7 l-288 -5 0 34 0 34 155 0
c135 0 164 -3 230 -24z m301 -72 c60 -7 79 -33 79 -105 0 -99 18 -94 -368 -95
-183 0 -347 -4 -364 -8 l-33 -8 0 106 c0 103 1 106 23 107 288 16 548 17 663
3z m221 -29 c11 -4 11 -34 4 -166 -1 -13 -12 -15 -63 -11 -35 2 -66 7 -70 11
-3 3 3 25 14 49 20 41 20 43 3 80 -10 20 -20 41 -22 45 -4 7 105 1 134 -8z
m19 -212 c12 -7 64 -17 115 -23 153 -18 343 -50 352 -59 5 -5 11 -28 14 -52 3
-24 28 -96 54 -159 27 -63 49 -118 49 -121 0 -3 -40 1 -90 9 -57 9 -90 20 -90
27 0 19 -103 94 -158 115 -76 29 -234 42 -367 30 -63 -5 -125 -14 -139 -20
-21 -8 -46 -37 -46 -53 0 -3 102 -7 228 -9 208 -4 236 -7 332 -32 58 -16 110
-31 117 -35 6 -3 -48 -4 -120 -3 -147 4 -359 -6 -353 -17 3 -4 -11 -5 -29 -3
-45 5 -136 -37 -162 -74 -25 -37 -43 -88 -43 -126 0 -26 3 -29 27 -26 21 2 29
10 35 35 26 102 240 160 499 134 67 -7 150 -21 186 -32 104 -32 173 -114 173
-206 0 -17 6 -23 24 -23 23 0 23 -1 22 -107 -2 -98 -5 -118 -39 -213 -21 -58
-50 -143 -64 -190 -27 -92 -74 -194 -128 -274 -54 -82 -157 -176 -340 -311
-239 -177 -274 -201 -328 -219 -86 -29 -319 -26 -415 5 -42 14 -459 323 -536
397 -115 111 -192 240 -240 402 -13 47 -42 132 -62 190 -32 88 -38 118 -39
185 0 106 8 135 40 135 21 0 25 5 25 33 1 42 30 105 66 139 46 43 116 68 232
83 300 40 529 -13 561 -131 5 -22 14 -30 36 -32 l28 -4 -6 54 c-7 59 -53 134
-80 132 -9 -1 -15 2 -12 6 2 4 -7 12 -21 19 -31 14 -44 14 -24 0 12 -9 12 -10
-3 -5 -10 3 -26 6 -35 7 -14 0 -13 2 3 8 35 14 -126 26 -358 26 l-218 0 58 18
c149 44 245 57 441 57 105 0 193 3 196 8 6 10 -15 36 -41 50 -60 32 -366 34
-483 2 -62 -17 -196 -111 -185 -131 3 -4 -28 -12 -67 -19 -40 -6 -81 -14 -90
-16 -10 -3 -18 -2 -18 1 0 4 22 59 49 124 27 64 51 137 55 162 l7 46 122 21
c67 12 163 26 212 33 50 6 104 17 120 25 42 19 107 21 545 20 281 -1 391 -4
406 -13z m-191 -433 c-27 -12 -43 -12 -25 0 8 5 22 9 30 9 10 0 8 -3 -5 -9z
m-1347 -67 c-15 -16 -30 -22 -42 -19 -29 8 -66 -4 -66 -20 0 -16 -16 -19 -25
-4 -11 17 14 48 44 55 16 3 35 12 41 20 9 10 18 11 41 3 l30 -10 -23 -25z
m2232 12 c14 -3 32 -15 39 -27 11 -17 10 -23 -3 -36 -15 -15 -16 -14 -16 5 0
23 -31 36 -65 27 -14 -3 -28 3 -44 20 -25 26 -25 26 19 39 8 2 22 -1 30 -9 8
-7 26 -15 40 -19z m-2390 -75 c26 -50 26 -51 -10 -34 -24 12 -34 13 -52 3
l-23 -12 30 -10 c40 -13 40 -11 15 -45 -29 -39 -41 -104 -27 -151 l11 -36 3
30 c9 75 26 134 44 151 19 17 20 17 34 -2 44 -57 46 -209 3 -235 -14 -9 8 -41
42 -61 18 -10 33 -32 43 -62 9 -25 14 -46 11 -46 -11 0 -83 40 -89 50 -3 5
-11 10 -17 10 -20 0 32 -47 79 -72 30 -15 49 -34 59 -57 22 -52 19 -60 -20
-51 -87 19 -194 128 -264 269 -45 90 -47 98 -47 181 0 79 3 91 30 135 28 44
82 85 112 85 7 0 22 -18 33 -40z m2561 9 c15 -11 40 -44 55 -74 24 -49 26 -64
22 -131 -4 -64 -12 -89 -51 -167 -69 -139 -176 -248 -263 -267 -39 -9 -42 -1
-20 52 10 24 27 40 55 52 40 19 104 76 83 76 -6 0 -14 -5 -17 -10 -6 -10 -78
-50 -89 -50 -3 0 2 21 11 46 10 30 25 52 43 62 32 19 56 52 43 61 -40 27 -42
166 -4 220 38 52 62 20 79 -104 l8 -60 11 36 c13 43 3 107 -21 143 -22 35 -20
43 11 53 l28 10 -23 12 c-18 10 -28 9 -52 -3 -36 -17 -36 -17 -9 35 18 36 23
40 47 34 14 -3 38 -15 53 -26z m-1331 -1552 c111 0 168 4 201 15 l46 15 11
-83 c13 -101 22 -118 69 -143 l37 -18 -55 -32 c-97 -56 -179 -76 -309 -75 -96
1 -127 5 -187 26 -64 23 -163 73 -163 82 0 2 15 13 34 24 38 23 50 52 61 158
l7 62 46 -16 c34 -11 90 -15 202 -15z m-424 -198 c4 -7 1 -10 -7 -7 -8 3 -22
1 -31 -4 -11 -5 -18 -5 -18 1 0 8 15 15 42 20 4 0 10 -4 14 -10z m-111 -39
c-3 -5 -16 -10 -28 -9 -20 1 -20 2 3 9 14 4 26 8 28 9 2 1 0 -3 -3 -9z m1180
-16 c17 -3 35 -10 40 -16 7 -7 6 -9 -1 -5 -6 3 -33 9 -60 12 -27 4 -53 12 -59
17 -7 7 -1 8 20 4 17 -3 44 -9 60 -12z m-1278 -10 c-3 -3 -12 -4 -19 -1 -8 3
-5 6 6 6 11 1 17 -2 13 -5z m-40 -10 c-3 -3 -12 -4 -19 -1 -8 3 -5 6 6 6 11 1
17 -2 13 -5z m-37 -8 c0 -2 -9 -6 -20 -9 -11 -3 -18 -1 -14 4 5 9 34 13 34 5z
m1475 -6 c8 -13 -5 -13 -25 0 -13 8 -13 10 2 10 9 0 20 -4 23 -10z m62 -16
c-3 -3 -12 -4 -19 -1 -8 3 -5 6 6 6 11 1 17 -2 13 -5z m-1667 -16 c-14 -5 -33
-14 -42 -19 -19 -10 -75 -13 -66 -3 3 3 16 7 29 8 13 2 31 6 39 9 50 18 82 22
40 5z m1721 2 c5 0 9 -4 9 -9 0 -12 -38 -2 -47 12 -4 7 0 8 11 4 10 -4 22 -7
27 -7z m74 -30 c4 -6 10 -8 15 -5 4 3 19 -4 31 -15 l24 -20 -40 16 c-43 17
-67 34 -48 34 7 0 15 -5 18 -10z m-1905 -10 c13 -8 13 -10 -2 -11 -38 -3 -81
-19 -90 -33 -5 -7 -8 -6 -8 4 0 8 17 23 38 32 44 20 43 20 62 8z m2029 -50 c6
0 14 -7 17 -15 4 -8 12 -15 19 -15 6 0 20 -10 31 -22 12 -14 13 -18 3 -10 -9
6 -20 8 -24 4 -5 -4 -5 -1 -1 6 4 6 2 12 -4 12 -16 0 -90 51 -90 63 0 6 8 3
18 -6 10 -10 24 -17 31 -17z m-2176 -24 c-15 -19 -34 -35 -41 -35 -7 -1 -10
-5 -7 -11 3 -6 -1 -7 -9 -4 -9 3 -16 11 -16 17 0 6 2 8 5 5 3 -3 21 10 41 28
46 44 64 44 27 0z m-80 -70 c4 -10 1 -13 -8 -9 -8 3 -12 9 -9 14 7 12 11 11
17 -5z m-34 -56 c-12 -22 -25 -43 -30 -46 -12 -7 13 49 26 58 6 5 6 8 0 8 -8
0 13 19 22 20 2 0 -7 -18 -18 -40z m2415 14 c3 -8 2 -12 -4 -9 -6 3 -10 10
-10 16 0 14 7 11 14 -7z"/>
<path d="M2283 3619 c-15 -15 -5 -39 17 -39 22 0 32 24 17 39 -6 6 -14 11 -17
11 -3 0 -11 -5 -17 -11z"/>
<path d="M2443 3619 c-15 -15 -5 -39 17 -39 22 0 32 24 17 39 -6 6 -14 11 -17
11 -3 0 -11 -5 -17 -11z"/>
<path d="M2584 3615 c-4 -9 -2 -21 4 -27 15 -15 44 -1 40 19 -4 23 -36 29 -44
8z"/>
<path d="M2724 3605 c-8 -19 12 -36 33 -28 19 7 12 37 -10 41 -9 2 -20 -4 -23
-13z"/>
<path d="M2130 3591 c0 -27 19 -36 37 -18 18 18 9 37 -18 37 -12 0 -19 -7 -19
-19z"/>
<path d="M3068 2889 c-68 -10 -146 -47 -179 -86 -28 -34 -75 -120 -69 -126 3
-2 41 -7 85 -11 85 -7 90 3 12 24 -26 7 -50 16 -52 20 -6 10 23 44 58 65 l27
17 0 -29 c0 -17 10 -45 23 -64 20 -30 30 -35 82 -42 113 -16 206 19 258 98 12
19 30 36 40 39 9 2 17 9 17 15 0 14 -32 27 -125 51 -79 21 -62 25 34 10 78
-13 93 -6 19 9 -75 15 -163 19 -230 10z m200 -85 c12 -4 22 -10 22 -15 0 -5
-22 -32 -48 -59 -55 -57 -81 -67 -57 -20 8 16 15 45 15 65 0 30 3 35 23 35 12
0 32 -3 45 -6z m-218 -32 c0 -15 -24 -32 -47 -32 -27 0 -30 15 -5 29 21 12 52
14 52 3z"/>
<path d="M1940 2822 c-58 -19 -102 -41 -85 -42 6 0 3 -5 -5 -10 -8 -5 -37 -10
-63 -10 -57 0 -55 -11 9 -35 45 -17 49 -17 133 4 133 32 246 27 338 -16 19 -9
40 -12 50 -8 17 7 16 8 -2 13 -11 2 -36 18 -55 35 -86 75 -216 103 -320 69z
m73 -9 c-7 -2 -19 -2 -25 0 -7 3 -2 5 12 5 14 0 19 -2 13 -5z m70 0 c-7 -2
-19 -2 -25 0 -7 3 -2 5 12 5 14 0 19 -2 13 -5z"/>
<path d="M2333 2663 c-18 -20 -20 -29 -11 -40 14 -17 24 -7 31 35 8 38 8 38
-20 5z"/>
<path d="M2790 2640 c0 -31 6 -35 28 -22 15 10 7 38 -14 46 -10 4 -14 -3 -14
-24z"/>
<path d="M2250 2215 c0 -13 9 -33 21 -43 31 -30 235 -94 294 -93 60 1 274 72
292 97 15 21 17 64 3 64 -5 0 -10 -9 -10 -20 0 -28 -36 -47 -105 -56 -33 -4
-77 -13 -99 -20 -21 -8 -60 -14 -86 -14 -26 0 -65 6 -86 14 -22 7 -66 16 -99
20 -69 9 -105 28 -105 56 0 11 -4 20 -10 20 -5 0 -10 -11 -10 -25z"/>
<path d="M2913 1990 c-49 -52 -414 -74 -605 -36 -65 13 -98 24 -98 33 0 7 -11
13 -25 13 -20 0 -25 -5 -25 -24 0 -27 14 -41 51 -49 15 -4 55 -28 89 -53 77
-57 150 -91 210 -100 25 -4 56 -15 69 -25 l24 -19 -55 0 c-31 0 -75 7 -98 15
l-43 15 19 -21 c42 -48 157 -65 218 -34 15 8 35 15 43 15 53 0 115 66 99 105
-7 18 69 77 132 101 35 14 42 21 42 44 0 35 -24 45 -47 20z m-290 -88 c109 2
192 1 184 -3 -7 -4 -55 -15 -107 -24 -105 -18 -205 -15 -322 11 -83 19 -90 35
-10 22 31 -6 146 -8 255 -6z"/>
<path d="M2136 550 c-60 -18 -100 -85 -77 -128 6 -11 29 -27 51 -36 71 -28 37
-65 -50 -53 -32 4 -42 1 -65 -23 l-26 -27 23 -7 c13 -3 55 -6 93 -6 105 0 160
41 153 113 -3 27 -10 35 -50 55 -27 12 -48 27 -48 32 0 16 47 30 80 24 25 -6
30 -3 36 21 5 18 2 30 -7 36 -17 11 -74 10 -113 -1z"/>
<path d="M2362 553 c-15 -3 -27 -15 -33 -33 -6 -15 -19 -30 -30 -33 -22 -6
-28 -57 -6 -57 11 0 12 -11 4 -55 -11 -68 -1 -85 53 -85 54 0 70 8 70 36 0 18
-6 24 -21 24 -19 0 -21 4 -15 31 3 17 6 37 6 45 0 7 10 16 23 20 40 12 52 54
16 54 -19 0 -21 4 -15 30 6 32 2 33 -52 23z"/>
<path d="M3060 505 c-26 -63 -40 -63 -40 1 0 41 -2 44 -27 44 -16 0 -37 -3
-49 -6 l-21 -5 25 -90 26 -89 -21 -28 c-26 -35 -76 -69 -122 -82 -72 -21 -213
-23 -344 -5 -159 22 -309 17 -423 -14 -78 -22 -81 -24 -102 -67 -12 -24 -22
-46 -22 -49 0 -2 24 7 53 20 122 56 214 65 627 57 268 -5 361 38 461 210 23
40 53 92 66 116 l25 42 -45 0 -45 0 -22 -55z"/>
<path d="M2842 524 c-12 -8 -22 -10 -22 -5 0 6 -15 11 -34 11 -24 0 -36 -5
-40 -17 -8 -29 -36 -186 -34 -189 2 -1 21 1 42 5 38 6 40 8 52 61 14 61 53
105 86 97 14 -4 18 -2 14 10 -3 8 -6 21 -6 29 0 19 -30 18 -58 -2z"/>
<path d="M2533 501 c-43 -20 -69 -56 -73 -101 -5 -60 -1 -71 36 -86 41 -17 87
-11 133 17 52 31 78 122 48 163 -20 27 -93 31 -144 7z m67 -75 c0 -40 -21 -71
-44 -63 -19 7 -21 39 -5 70 25 47 49 43 49 -7z"/>
</g>
</svg>
